<svg preserveAspectRatio="none" overflow="visible" style="display: block;" width="17.5002" height="15.9235" viewBox="0 0 17.5002 15.9235" fill="none" xmlns="http://www.w3.org/2000/svg">
<g id="Frame 2082894599" clip-path="url(#clip0_0_30)">
<path id="Union" d="M7.43947 0.370556C8.24298 -0.123917 9.25704 -0.123917 10.0606 0.370556L17.2022 4.76606C17.4961 4.94693 17.588 5.33149 17.4072 5.62544C17.2264 5.91929 16.8418 6.01112 16.5479 5.83052L16.25 5.64692V10.3247C16.25 11.1765 16.2497 11.8542 16.2051 12.4008C16.1594 12.9606 16.0635 13.4384 15.8408 13.8754C15.4813 14.5809 14.9076 15.1547 14.2022 15.5141C13.7653 15.7367 13.2881 15.8326 12.7285 15.8784C12.1819 15.923 11.5042 15.9223 10.6524 15.9223H6.84767C5.99581 15.9223 5.3181 15.923 4.7715 15.8784C4.21195 15.8327 3.73477 15.7366 3.29787 15.5141C2.5923 15.1546 2.01775 14.581 1.65822 13.8754C1.43554 13.4384 1.34067 12.9606 1.29494 12.4008C1.25029 11.8542 1.25001 11.1765 1.25001 10.3247V5.64692L0.952162 5.83052C0.658224 6.0112 0.273637 5.91932 0.0927873 5.62544C-0.0879892 5.33148 0.00394452 4.94694 0.297865 4.76606L7.43947 0.370556ZM9.40529 1.43501C9.00353 1.18778 8.4965 1.18778 8.09474 1.43501L2.50001 4.87739V10.2973C2.50001 11.1827 2.50004 11.8095 2.54005 12.2993C2.57947 12.7817 2.65455 13.0766 2.77247 13.3081C3.01217 13.7783 3.39498 14.1602 3.86525 14.3999C4.09664 14.5177 4.39084 14.5929 4.87306 14.6323C5.36281 14.6723 5.98962 14.6723 6.87501 14.6723H10.625C11.51 14.6723 12.1363 14.6722 12.626 14.6323C13.1084 14.5929 13.4033 14.5178 13.6348 14.3999C14.1051 14.1602 14.4879 13.7783 14.7276 13.3081C14.8455 13.0766 14.9196 12.7817 14.959 12.2993C14.999 11.8095 15 11.1827 15 10.2973V4.87739L9.40529 1.43501Z" fill="white"/>
<g id="Union_2">
</g>
</g>
<defs>
<clipPath id="clip0_0_30">
<rect width="17.5002" height="15.9235" fill="white"/>
</clipPath>
</defs>
</svg>
