<svg preserveAspectRatio="none" overflow="visible" style="display: block;" width="20" height="20" viewBox="0 0 20 20" fill="none" xmlns="http://www.w3.org/2000/svg">
<g id="&#229;&#141;&#179;&#229;&#136;&#155;&#229;&#155;&#190;&#230;&#160;&#135;&#229;&#186;&#147;-&#230;&#150;&#176;">
<path id="Union" d="M2.93994 15.219C3.3713 15.2193 3.72093 15.5689 3.72119 16.0003C3.72093 16.4316 3.3713 16.7822 2.93994 16.7825H2.91846C2.48688 16.7825 2.13649 16.4318 2.13623 16.0003C2.13649 15.5687 2.48688 15.219 2.91846 15.219H2.93994ZM17.355 15.219C17.7863 15.2193 18.136 15.5689 18.1362 16.0003C18.136 16.4316 17.7863 16.7822 17.355 16.7825H6.41064C5.97906 16.7825 5.62868 16.4318 5.62842 16.0003C5.62868 15.5687 5.97906 15.219 6.41064 15.219H17.355ZM2.93994 9.27467C3.37125 9.27499 3.72093 9.6246 3.72119 10.0559C3.72108 10.4874 3.37134 10.8378 2.93994 10.8381H2.91846C2.48678 10.8381 2.13634 10.4876 2.13623 10.0559C2.13649 9.6244 2.48688 9.27467 2.91846 9.27467H2.93994ZM17.355 9.27467C17.7863 9.27493 18.136 9.62456 18.1362 10.0559C18.1361 10.4874 17.7864 10.8379 17.355 10.8381H6.41064C5.97897 10.8381 5.62853 10.4876 5.62842 10.0559C5.62868 9.6244 5.97906 9.27467 6.41064 9.27467H17.355ZM2.93994 3.20826C3.3713 3.20853 3.72093 3.55816 3.72119 3.98951C3.72119 4.42109 3.37146 4.77148 2.93994 4.77174H2.91846C2.48671 4.77174 2.13623 4.42126 2.13623 3.98951C2.13649 3.55799 2.48688 3.20826 2.91846 3.20826H2.93994ZM17.0171 3.20826C17.4485 3.20852 17.7981 3.55815 17.7983 3.98951C17.7983 4.4211 17.4486 4.77148 17.0171 4.77174H6.07275C5.64101 4.77174 5.29053 4.42126 5.29053 3.98951C5.29079 3.55799 5.64117 3.20826 6.07275 3.20826H17.0171Z" fill="white" fill-opacity="0.6"/>
</g>
</svg>
