<svg preserveAspectRatio="none" overflow="visible" style="display: block;" width="20" height="20" viewBox="0 0 20 20" fill="none" xmlns="http://www.w3.org/2000/svg">
<g id="Frame 2147229214">
<path id="Union" d="M2 8.40039C2 6.16018 1.99957 5.03924 2.43555 4.18359C2.81901 3.43109 3.43109 2.81902 4.18359 2.43555C4.88339 2.07898 5.76055 2.01769 7.28223 2.00586C7.29908 2.00457 7.31582 2.00001 7.33301 2C7.3484 2 7.36377 2.00386 7.37891 2.00488C7.69135 2.00293 8.03081 2 8.40039 2L11.5996 2C13.8398 2 14.9608 1.99957 15.8164 2.43555C16.5689 2.81902 17.181 3.43109 17.5645 4.18359C18.0004 5.03924 18 6.16018 18 8.40039L18 11.5996C18 13.8398 18.0004 14.9608 17.5645 15.8164C17.181 16.5689 16.5689 17.181 15.8164 17.5645C14.9608 18.0004 13.8398 18 11.5996 18L8.40039 18C8.03082 18 7.69135 17.9981 7.37891 17.9961C7.36379 17.9971 7.34838 18 7.33301 18C7.31585 18 7.29906 17.9964 7.28223 17.9951C5.76055 17.9833 4.88339 17.921 4.18359 17.5645C3.43109 17.181 2.81902 16.5689 2.43555 15.8164C1.99957 14.9608 2 13.8398 2 11.5996L2 8.40039ZM8 16.665C8.12817 16.6652 8.26178 16.667 8.40039 16.667L11.5996 16.667C12.7414 16.667 13.5181 16.6652 14.1182 16.6162C14.7027 16.5685 15.0024 16.4822 15.2109 16.376C15.7125 16.1203 16.1203 15.7125 16.376 15.2109C16.4822 15.0024 16.5685 14.7027 16.6162 14.1182C16.6652 13.5181 16.667 12.7415 16.667 11.5996L16.667 8.40039C16.667 7.25855 16.6652 6.4819 16.6162 5.88184C16.5685 5.29728 16.4822 4.99759 16.376 4.78906C16.1203 4.28749 15.7125 3.87965 15.2109 3.62402C15.0024 3.51777 14.7027 3.43155 14.1182 3.38379C13.5181 3.33479 12.7414 3.33301 11.5996 3.33301L8.40039 3.33301C8.26178 3.33301 8.12817 3.33485 8 3.33496L8 16.665ZM3.33301 11.5996C3.33301 12.7415 3.33479 13.5181 3.38379 14.1182C3.43155 14.7027 3.51777 15.0024 3.62402 15.2109C3.87965 15.7125 4.2875 16.1203 4.78906 16.376C4.9976 16.4822 5.29728 16.5685 5.88184 16.6162C6.11362 16.6351 6.3717 16.646 6.66699 16.6533L6.66699 3.34668C6.3717 3.354 6.11362 3.36486 5.88184 3.38379C5.29728 3.43155 4.99759 3.51777 4.78906 3.62402C4.2875 3.87965 3.87965 4.2875 3.62402 4.78906C3.51777 4.99759 3.43155 5.29728 3.38379 5.88184C3.33479 6.4819 3.33301 7.25855 3.33301 8.40039L3.33301 11.5996Z" fill="white" fill-opacity="0.6"/>
</g>
</svg>
